<svg width="50" height="50" viewBox="0 0 50 50" fill="none" xmlns="http://www.w3.org/2000/svg">
<path d="M45.5664 1.88672H4.4375C3.02874 1.88672 1.88672 3.02874 1.88672 4.4375V45.5664C1.88672 46.9752 3.02874 48.1172 4.4375 48.1172H45.5664C46.9752 48.1172 48.1172 46.9752 48.1172 45.5664V4.4375C48.1172 3.02874 46.9752 1.88672 45.5664 1.88672Z" fill="#3D5A98"/>
<path d="M33.7813 48.114V30.2116H39.7891L40.6875 23.2351H33.7813V18.7819C33.7813 16.7624 34.3438 15.3835 37.2383 15.3835H40.9336V9.13351C39.1442 8.94702 37.3459 8.85834 35.5469 8.86788C30.2266 8.86788 26.5625 12.1101 26.5625 18.0905V23.2351H20.5547V30.2116H26.5625V48.114H33.7813Z" fill="white"/>
</svg>
